<svg width="378" height="908" viewBox="0 0 378 908" fill="none" xmlns="http://www.w3.org/2000/svg">
<path d="M200 698L187.237 705.881L200 698ZM385 163.5L398.344 156.649L385 163.5ZM184.717 -37.395C176.767 -39.7241 168.434 -35.1674 166.105 -27.2173C163.776 -19.2672 168.333 -10.9342 176.283 -8.60505L184.717 -37.395ZM-136.826 850.797C-16.6594 924.289 89.3953 919.147 157.204 876.92C224.27 835.156 253.378 755.888 212.763 690.119L187.237 705.881C217.022 754.112 198.13 816.094 141.346 851.455C85.3047 886.353 -8.34055 894.211 -121.174 825.203L-136.826 850.797ZM212.763 690.119C189.419 652.319 162.162 630.925 134.989 623.286C107.662 615.604 81.8508 622.342 63.9332 638.025C46.1105 653.625 36.5561 677.739 41.0116 703.316C45.4814 728.976 63.5575 753.854 96.4654 772.97L111.535 747.03C84.1925 731.146 73.1436 712.962 70.5665 698.168C67.9752 683.292 73.452 669.562 83.6918 660.6C93.8367 651.72 109.12 647.177 126.87 652.167C144.775 657.2 166.581 672.431 187.237 705.881L212.763 690.119ZM96.4654 772.97C160.908 810.406 240.305 814.211 308.841 793.814C377.222 773.464 437.472 728.134 461.072 664.194L432.928 653.806C413.528 706.366 362.528 746.536 300.284 765.061C238.195 783.539 167.592 779.594 111.535 747.03L96.4654 772.97ZM461.072 664.194C483.781 602.668 487.133 513.257 475.697 421.581C464.218 329.555 437.563 233.036 398.344 156.649L371.656 170.351C408.937 242.964 434.782 335.945 445.928 425.294C457.117 514.993 453.219 598.832 432.928 653.806L461.072 664.194ZM398.344 156.649C335.055 33.381 230.869 -23.874 184.717 -37.395L176.283 -8.60505C215.464 2.87396 312.545 55.2191 371.656 170.351L398.344 156.649Z" fill="#F67500"/>
</svg>
